<svg xmlns="http://www.w3.org/2000/svg" width="16.001" height="15.999" viewBox="0 0 16.001 15.999">
  <path id="Forma_1_copy_6" data-name="Forma 1 copy 6" d="M144.467,590A1.458,1.458,0,0,1,143,588.558V577.214a1.456,1.456,0,0,1,1.426-1.432v1.935a1.6,1.6,0,0,0,1.619,1.579h1.023a1.606,1.606,0,0,0,1.629-1.579v-1.942H153.3v1.942a1.607,1.607,0,0,0,1.63,1.579h1.021a1.6,1.6,0,0,0,1.619-1.579v-1.935A1.456,1.456,0,0,1,159,577.214v11.344A1.459,1.459,0,0,1,157.532,590Zm.4-8.006v5.858a.628.628,0,0,0,.634.62h10.963a.628.628,0,0,0,.635-.62v-5.858a.628.628,0,0,0-.635-.621H145.5A.628.628,0,0,0,144.87,581.993Zm8.721,5.631a.368.368,0,0,1-.372-.363v-1.267a.367.367,0,0,1,.372-.363h1.3a.367.367,0,0,1,.372.363v1.267a.368.368,0,0,1-.372.363Zm-3.239,0a.368.368,0,0,1-.372-.363v-1.267a.367.367,0,0,1,.372-.363h1.3a.367.367,0,0,1,.371.363v1.267a.368.368,0,0,1-.371.363Zm-3.24,0a.367.367,0,0,1-.371-.363v-1.267a.367.367,0,0,1,.371-.363h1.3a.367.367,0,0,1,.371.363v1.267a.367.367,0,0,1-.371.363Zm6.479-3.167a.367.367,0,0,1-.372-.363v-1.267a.368.368,0,0,1,.372-.364h1.3a.368.368,0,0,1,.372.364v1.267a.367.367,0,0,1-.372.363Zm-3.239,0a.367.367,0,0,1-.372-.363v-1.267a.368.368,0,0,1,.372-.364h1.3a.368.368,0,0,1,.371.364v1.267a.367.367,0,0,1-.371.363Zm-3.24,0a.367.367,0,0,1-.371-.363v-1.267a.368.368,0,0,1,.371-.364h1.3a.368.368,0,0,1,.371.364v1.267a.367.367,0,0,1-.371.363Zm7.808-6.2a.548.548,0,0,1-.555-.543v-3.173a.548.548,0,0,1,.555-.543h1.01a.551.551,0,0,1,.557.543v3.173a.551.551,0,0,1-.557.543Zm-8.88,0a.548.548,0,0,1-.554-.543v-3.173a.548.548,0,0,1,.554-.543h1.012a.55.55,0,0,1,.556.543v3.173a.55.55,0,0,1-.556.543Z" transform="translate(-142.999 -574)" fill="#ced0d4"/>
</svg>
