<svg xmlns="http://www.w3.org/2000/svg" width="18" height="14" viewBox="0 0 18 14">
  <path id="Shape_847" data-name="Shape 847" d="M150.645,558.658l-4.654-4.547a1.12,1.12,0,0,1-.351-.832,1.169,1.169,0,0,1,.351-.841l6.777-6.6a2.97,2.97,0,0,1,.966-.6,3,3,0,0,1,1.11-.244h3.943a1.177,1.177,0,0,1,.853.351,1.121,1.121,0,0,1,.361.832v3.844a2.791,2.791,0,0,1-.251,1.081,2.746,2.746,0,0,1-.611.933l-6.778,6.617a1.175,1.175,0,0,1-.852.342A1.23,1.23,0,0,1,150.645,558.658Zm5.465-11.537a1.159,1.159,0,0,0,0,1.672,1.234,1.234,0,0,0,1.715,0,1.161,1.161,0,0,0,0-1.672,1.232,1.232,0,0,0-1.715,0Zm-9.1,11.537-4.653-4.547a1.114,1.114,0,0,1-.352-.832,1.163,1.163,0,0,1,.352-.841l6.776-6.6a2.955,2.955,0,0,1,.967-.6A2.993,2.993,0,0,1,151.2,545h2.123a2.988,2.988,0,0,0-1.108.244,2.95,2.95,0,0,0-.968.6l-6.777,6.6a1.162,1.162,0,0,0-.351.841,1.113,1.113,0,0,0,.351.832l4.455,4.343a2.711,2.711,0,0,1-.5.416,1.087,1.087,0,0,1-.56.13A1.226,1.226,0,0,1,147.005,558.658Z" transform="translate(-142 -545)" fill="#ced0d4"/>
</svg>
